<svg width="229" height="28" viewBox="0 0 229 28" fill="none" xmlns="http://www.w3.org/2000/svg">
<path d="M0.490234 0.557617H5.4707V11.6143L15.332 0.557617H21.5078L10.1274 14.1294L22.6284 28H15.6309L6.81543 18.4126L5.4707 19.6079V28H0.490234V0.557617ZM45.3145 15.4492V5.58789H32.8633V15.4492H45.3145ZM32.8633 20.4297V28H27.8828V5.58789C27.999 2.38379 29.6509 0.723633 32.8384 0.607422H45.3145C48.5186 0.69043 50.1787 2.35889 50.2949 5.61279V28H45.3145V20.4297H32.8633ZM72.707 15.5488V5.53809H60.2559V15.5488H72.707ZM60.2559 20.5293V28H55.2754V0.557617H72.6572C75.8613 0.707031 77.5381 2.38379 77.6875 5.58789V15.499C77.5381 18.6533 75.8779 20.3301 72.707 20.5293L77.7373 28H72.2588L67.2285 20.5293H60.2559ZM87.7979 28H82.6929L86.9014 0.607422H92.0063L96.2896 17.4912L100.523 0.607422H105.628L110.036 28H104.931L102.565 13.0586L98.8545 28H93.7495L90.0889 13.5068L87.7979 28ZM132.473 15.4492V5.58789H120.021V15.4492H132.473ZM120.021 20.4297V28H115.041V5.58789C115.157 2.38379 116.809 0.723633 119.997 0.607422H132.473C135.677 0.69043 137.337 2.35889 137.453 5.61279V28H132.473V20.4297H120.021ZM162.355 0.557617V5.53809H147.414V11.8633H159.865C163.036 12.0127 164.696 13.6562 164.846 16.7939V22.9448C164.696 26.1323 163.02 27.8174 159.815 28H142.434V23.0195H159.865V16.8438H147.414C144.227 16.6113 142.566 14.9429 142.434 11.8384V5.51318C142.566 2.35889 144.227 0.707031 147.414 0.557617H162.355ZM174.807 0.557617V11.8633H187.258V0.557617H192.238V28H187.258V16.8438H174.807V28H169.826V0.557617H174.807ZM197.219 0.657227H202.199V28H197.219V0.657227ZM207.18 0.557617H212.16V23.0195H228.396V28H207.18V0.557617Z" fill="#055D59"/>
</svg>
