<svg width="66" height="66" viewBox="0 0 66 66" fill="none" xmlns="http://www.w3.org/2000/svg">
<circle cx="33" cy="33" r="33" fill="#D9D9D9"/>
<rect x="23.3004" y="6" width="18.7387" height="5.03267" fill="#055D59"/>
<path d="M47.7677 33.3584C45.0265 29.1182 42.1996 17.9214 41.1289 12.853H24.4247C24.2105 18.2497 20.0523 28.7719 18 33.3584C30.9029 47.3857 30.1814 55.7683 30.9488 61.2293C32.1955 61.4511 34.8571 61.3578 34.8571 61.2293C34.1611 45.5424 47.7142 33.3584 47.7677 33.3584Z" fill="#055D59"/>
<circle cx="32.8609" cy="63.4474" r="1.55263" fill="#055D59"/>
<rect x="32.25" y="33.75" width="1.71325" height="27.6261" fill="white"/>
<path d="M40.7761 36C40.7313 36 40.6864 36 40.6415 36C40.5967 36 40.5518 35.9925 40.5069 35.9774C40.0432 35.5254 39.5347 34.9077 38.9813 34.1243C38.4279 33.3409 37.867 32.4821 37.2986 31.548C36.7302 30.6139 36.1843 29.6874 35.6608 28.7684C35.4663 29.0395 35.2719 29.3183 35.0774 29.6045C34.883 29.8757 34.6885 30.162 34.4941 30.4633C34.4044 31.4727 34.3071 32.4218 34.2024 33.3107C34.0977 34.1996 33.9855 34.9529 33.8659 35.5706C33.7761 35.6761 33.6116 35.7589 33.3723 35.8192C33.133 35.8945 32.9535 35.9322 32.8338 35.9322C32.7142 35.9322 32.6544 35.9021 32.6544 35.8418C32.8189 34.7721 32.9311 33.7627 32.9909 32.8136C33.0507 31.8493 33.0806 30.9077 33.0806 29.9887C33.0806 28.9793 33.0582 27.9171 33.0133 26.8023C32.9685 25.6874 32.8937 24.58 32.789 23.4802C32.6992 22.3804 32.5796 21.3559 32.43 20.4068L33.0133 20L35.0326 21.0395C35.0026 22.0038 34.9578 23.1262 34.8979 24.4068C34.8381 25.6874 34.7558 26.9906 34.6511 28.3164C35.3541 27.0358 36.0721 25.7552 36.805 24.4746C37.5529 23.1789 38.3381 21.9435 39.1608 20.7684L41.1127 20.3164L41.7633 20.8362C40.8509 21.9812 39.9984 23.0508 39.2056 24.0452C38.4279 25.0245 37.6875 25.9962 36.9845 26.9605C37.164 27.533 37.4257 28.2185 37.7697 29.0169C38.1287 29.8004 38.5251 30.6139 38.9588 31.4576C39.4076 32.3013 39.8488 33.0998 40.2826 33.8531C40.7313 34.6064 41.1426 35.2316 41.5165 35.7288C41.5165 35.8041 41.4343 35.8644 41.2697 35.9096C41.1202 35.9699 40.9556 36 40.7761 36Z" fill="white"/>
<path d="M25.4172 36C25.462 36 25.5069 36 25.5518 36C25.5966 36 25.6415 35.9925 25.6864 35.9774C26.1501 35.5254 26.6586 34.9077 27.212 34.1243C27.7654 33.3409 28.3263 32.4821 28.8947 31.548C29.4631 30.6139 30.009 29.6874 30.5325 28.7684C30.727 29.0395 30.9214 29.3183 31.1159 29.6045C31.3103 29.8757 31.5048 30.162 31.6992 30.4633C31.7889 31.4727 31.8862 32.4218 31.9909 33.3107C32.0956 34.1996 32.2078 34.9529 32.3274 35.5706C32.4172 35.6761 32.5817 35.7589 32.821 35.8192C33.0603 35.8945 33.2398 35.9322 33.3595 35.9322C33.4791 35.9322 33.5389 35.9021 33.5389 35.8418C33.3744 34.7721 33.2622 33.7627 33.2024 32.8136C33.1426 31.8493 33.1127 30.9077 33.1127 29.9887C33.1127 28.9793 33.1351 27.9171 33.18 26.8023C33.2248 25.6874 33.2996 24.58 33.4043 23.4802C33.4941 22.3804 33.6137 21.3559 33.7633 20.4068L33.18 20L31.1607 21.0395C31.1907 22.0038 31.2355 23.1262 31.2954 24.4068C31.3552 25.6874 31.4375 26.9906 31.5422 28.3164C30.8392 27.0358 30.1212 25.7552 29.3883 24.4746C28.6404 23.1789 27.8552 21.9435 27.0325 20.7684L25.0806 20.3164L24.43 20.8362C25.3424 21.9812 26.1949 23.0508 26.9877 24.0452C27.7654 25.0245 28.5058 25.9962 29.2088 26.9605C29.0293 27.533 28.7676 28.2185 28.4236 29.0169C28.0646 29.8004 27.6682 30.6139 27.2345 31.4576C26.7857 32.3013 26.3445 33.0998 25.9107 33.8531C25.462 34.6064 25.0507 35.2316 24.6768 35.7288C24.6768 35.8041 24.759 35.8644 24.9236 35.9096C25.0731 35.9699 25.2377 36 25.4172 36Z" fill="white"/>
</svg>
